<?xml version="1.0" encoding="UTF-8"?>
<svg xmlns="http://www.w3.org/2000/svg" viewBox="0 0 1200 630" width="1200" height="630">
  <defs>
    <linearGradient id="bg" x1="0%" y1="0%" x2="100%" y2="100%">
      <stop offset="0%" stop-color="#12110F"/>
      <stop offset="60%" stop-color="#1a1412"/>
      <stop offset="100%" stop-color="#141210"/>
    </linearGradient>
    <radialGradient id="glow" cx="20%" cy="0%" r="60%">
      <stop offset="0%" stop-color="#FF7B42" stop-opacity="0.35"/>
      <stop offset="50%" stop-color="#F57C42" stop-opacity="0.12"/>
      <stop offset="100%" stop-color="#12110F" stop-opacity="0"/>
    </radialGradient>
    <linearGradient id="thermal" x1="0%" y1="0%" x2="100%" y2="100%">
      <stop offset="0%" stop-color="#FF7B42"/>
      <stop offset="35%" stop-color="#F5C842"/>
      <stop offset="65%" stop-color="#F57C42"/>
      <stop offset="100%" stop-color="#3162F4"/>
    </linearGradient>
    <pattern id="grid" x="0" y="0" width="60" height="60" patternUnits="userSpaceOnUse">
      <path d="M 60 0 L 0 0 0 60" fill="none" stroke="rgba(255,255,255,0.03)" stroke-width="1"/>
    </pattern>
  </defs>

  <rect width="1200" height="630" fill="url(#bg)"/>
  <rect width="1200" height="630" fill="url(#grid)"/>
  <rect width="1200" height="630" fill="url(#glow)"/>

  <g transform="translate(96, 96)">
    <g transform="translate(0, 0) scale(0.5)">
      <path d="M 12 12 C 48.64 26.02, 73.98 51.36, 88 88 C 51.36 73.98, 26.02 48.64, 12 12 Z" fill="url(#thermal)"/>
      <path d="M 88 12 C 51.36 26.02, 26.02 48.64, 12 88 C 48.64 73.98, 73.98 48.64, 88 12 Z" fill="url(#thermal)"/>
    </g>
    <text x="64" y="34" font-family="'Instrument Sans', -apple-system, sans-serif" font-size="34" font-weight="700" fill="url(#thermal)" letter-spacing="-1">Ultralisk</text>
  </g>

  <g transform="translate(96, 200)">
    <rect x="0" y="0" width="220" height="38" fill="#1a1815" stroke="#f0f0f0" stroke-width="2"/>
    <rect x="14" y="15" width="8" height="8" fill="#3162F4"/>
    <text x="34" y="25" font-family="'Instrument Sans', sans-serif" font-size="14" font-weight="700" fill="#f0f0f0">Phase 2 · Inference Engine</text>
  </g>

  <g transform="translate(96, 280)" font-family="'Instrument Sans', -apple-system, sans-serif">
    <text font-size="78" font-weight="700" fill="#f0f0f0" letter-spacing="-2.5">
      <tspan x="0" y="0">Zealot.</tspan>
    </text>
    <text font-size="48" font-weight="700" fill="url(#thermal)" letter-spacing="-1.5">
      <tspan x="0" y="68">The engine under Ultralisk.</tspan>
    </text>
  </g>

  <text x="96" y="510" font-family="'Instrument Sans', sans-serif" font-size="22" fill="#9d968e">
    Rust + CUDA · Block Manager · Constrained Decode · Scheduler
  </text>

  <g transform="translate(96, 555)" font-family="JetBrains Mono, ui-monospace, monospace">
    <rect x="0" y="-22" width="120" height="32" fill="rgba(255, 123, 66, 0.1)" stroke="#FF7B42" stroke-width="2"/>
    <text x="60" y="-2" font-size="13" font-weight="700" fill="#FF7B42" text-anchor="middle">Rust</text>

    <rect x="130" y="-22" width="120" height="32" fill="rgba(49, 98, 244, 0.1)" stroke="#3162F4" stroke-width="2"/>
    <text x="190" y="-2" font-size="13" font-weight="700" fill="#3162F4" text-anchor="middle">Python · PyO3</text>

    <rect x="260" y="-22" width="120" height="32" fill="rgba(31, 162, 94, 0.1)" stroke="#1fa25e" stroke-width="2"/>
    <text x="320" y="-2" font-size="13" font-weight="700" fill="#1fa25e" text-anchor="middle">CUDA</text>
  </g>

  <text x="1104" y="585" font-family="JetBrains Mono, ui-monospace, monospace" font-size="18" fill="#7a736b" text-anchor="end">ultralisk.io/zealot</text>
</svg>
