<?xml version="1.0" encoding="UTF-8"?>
<svg xmlns="http://www.w3.org/2000/svg" viewBox="0 0 1200 630" width="1200" height="630">
  <defs>
    <linearGradient id="bg" x1="0%" y1="0%" x2="100%" y2="100%">
      <stop offset="0%" stop-color="#0A0A0A"/>
      <stop offset="60%" stop-color="#2a0a1e"/>
      <stop offset="100%" stop-color="#0a1a2e"/>
    </linearGradient>
    <radialGradient id="glow" cx="20%" cy="0%" r="60%">
      <stop offset="0%" stop-color="#CE422B" stop-opacity="0.5"/>
      <stop offset="50%" stop-color="#7C3AED" stop-opacity="0.2"/>
      <stop offset="100%" stop-color="#000000" stop-opacity="0"/>
    </radialGradient>
    <linearGradient id="brand" x1="0%" y1="0%" x2="100%" y2="100%">
      <stop offset="0%" stop-color="#CE422B"/>
      <stop offset="50%" stop-color="#7C3AED"/>
      <stop offset="100%" stop-color="#22D3EE"/>
    </linearGradient>
    <pattern id="grid" x="0" y="0" width="60" height="60" patternUnits="userSpaceOnUse">
      <path d="M 60 0 L 0 0 0 60" fill="none" stroke="rgba(255,255,255,0.04)" stroke-width="1"/>
    </pattern>
  </defs>

  <rect width="1200" height="630" fill="url(#bg)"/>
  <rect width="1200" height="630" fill="url(#grid)"/>
  <rect width="1200" height="630" fill="url(#glow)"/>

  <!-- Logo + Zealot label -->
  <g transform="translate(96, 96)">
    <g transform="translate(0, 0) scale(0.5)">
      <path d="M 12 12 C 48.64 26.02, 73.98 51.36, 88 88 C 51.36 73.98, 26.02 48.64, 12 12 Z" fill="url(#brand)"/>
      <path d="M 88 12 C 51.36 26.02, 26.02 48.64, 12 88 C 48.64 73.98, 73.98 48.64, 88 12 Z" fill="url(#brand)"/>
    </g>
    <text x="64" y="34" font-family="Inter, -apple-system, sans-serif" font-size="34" font-weight="700" fill="url(#brand)" letter-spacing="-1">Ultralisk</text>
  </g>

  <!-- Eyebrow badge -->
  <g transform="translate(96, 200)">
    <rect x="0" y="0" width="220" height="38" rx="19" fill="#1a1a1a" stroke="rgba(255,255,255,0.16)"/>
    <circle cx="20" cy="19" r="4" fill="#22D3EE"/>
    <text x="34" y="25" font-family="Inter, sans-serif" font-size="14" font-weight="600" fill="#fafafa">Phase 2 · Inference Engine</text>
  </g>

  <!-- Tagline -->
  <g transform="translate(96, 280)" font-family="Inter, -apple-system, sans-serif">
    <text font-size="78" font-weight="700" fill="white" letter-spacing="-2.5">
      <tspan x="0" y="0">Zealot.</tspan>
    </text>
    <text font-size="48" font-weight="700" fill="url(#brand)" letter-spacing="-1.5">
      <tspan x="0" y="68">The engine under Ultralisk.</tspan>
    </text>
  </g>

  <!-- Body line -->
  <text x="96" y="510" font-family="Inter, sans-serif" font-size="22" fill="#a1a1aa">
    Rust + CUDA · Block Manager · Constrained Decode · Scheduler
  </text>

  <!-- Tag chips -->
  <g transform="translate(96, 555)" font-family="JetBrains Mono, ui-monospace, monospace">
    <rect x="0" y="-22" width="120" height="32" rx="6" fill="rgba(206, 66, 43, 0.15)" stroke="#CE422B"/>
    <text x="60" y="-2" font-size="13" font-weight="600" fill="#CE422B" text-anchor="middle">Rust</text>

    <rect x="130" y="-22" width="120" height="32" rx="6" fill="rgba(55, 118, 171, 0.15)" stroke="#5a9bd4"/>
    <text x="190" y="-2" font-size="13" font-weight="600" fill="#5a9bd4" text-anchor="middle">Python · PyO3</text>

    <rect x="260" y="-22" width="120" height="32" rx="6" fill="rgba(118, 185, 0, 0.15)" stroke="#76b900"/>
    <text x="320" y="-2" font-size="13" font-weight="600" fill="#76b900" text-anchor="middle">CUDA</text>
  </g>

  <!-- URL -->
  <text x="1104" y="585" font-family="JetBrains Mono, ui-monospace, monospace" font-size="18" fill="#71717a" text-anchor="end">ultralisk.io/zealot</text>
</svg>